<svg width="56" height="56" viewBox="0 0 56 56" fill="none" xmlns="http://www.w3.org/2000/svg">
<g clip-path="url(#clip0_10_2)">
<rect width="56" height="56" fill="white"/>
<path d="M56 28C56 43.464 43.464 56 28 56C12.536 56 4.99055e-06 43.464 4.99055e-06 28C4.99055e-06 12.536 12.536 0 28 0C43.464 0 56 12.536 56 28Z" fill="black"/>
<path d="M14.4795 8.86368C16.6957 7.76673 19.951 8.59652 23.6261 11.5358C27.2311 14.4191 30.932 19.1141 33.8221 24.953C36.7121 30.7919 38.2008 36.5818 38.3073 41.1968C38.4157 45.9014 37.1014 48.993 34.8852 50.09C32.669 51.187 29.4137 50.3572 25.7387 47.4178C22.1337 44.5345 18.4327 39.8396 15.5427 34.0007C12.6526 28.1618 11.1639 22.3719 11.0575 17.7569C10.949 13.0522 12.2633 9.96064 14.4795 8.86368Z" stroke="white" stroke-width="2"/>
<path d="M40.6604 20.008L35.3404 40H32.7924L28.9004 26.896C28.7884 26.504 28.6764 26.1027 28.5644 25.692C28.4524 25.2813 28.3497 24.8893 28.2564 24.516C28.163 24.1427 28.079 23.8253 28.0044 23.564C27.9484 23.284 27.911 23.0787 27.8924 22.948C27.8737 23.0787 27.8364 23.284 27.7804 23.564C27.743 23.8253 27.6777 24.1427 27.5844 24.516C27.491 24.8893 27.3884 25.2907 27.2764 25.72C27.183 26.1307 27.071 26.5507 26.9404 26.98L23.1604 40H20.6124L15.3204 20.008H17.9524L21.0604 32.216C21.1724 32.6453 21.275 33.0747 21.3684 33.504C21.4617 33.9147 21.5457 34.3253 21.6204 34.736C21.7137 35.128 21.7884 35.5107 21.8444 35.884C21.9004 36.2573 21.9564 36.6213 22.0124 36.976C22.0684 36.6027 22.1244 36.22 22.1804 35.828C22.255 35.436 22.339 35.0347 22.4324 34.624C22.5257 34.1947 22.6284 33.7653 22.7404 33.336C22.8524 32.9067 22.9644 32.4867 23.0764 32.076L26.6044 20.008H29.2084L32.8764 32.16C33.007 32.5893 33.1284 33.028 33.2404 33.476C33.3524 33.9053 33.455 34.3253 33.5484 34.736C33.6417 35.1467 33.7164 35.548 33.7724 35.94C33.847 36.3133 33.9124 36.6587 33.9684 36.976C34.0244 36.5093 34.099 36.024 34.1924 35.52C34.2857 34.9973 34.3977 34.456 34.5284 33.896C34.659 33.336 34.799 32.7667 34.9484 32.188L38.0284 20.008H40.6604Z" fill="white"/>
<path d="M80.5 28C80.5 40.0508 76.7805 50.942 70.7903 58.8098C64.8003 66.6772 56.5613 71.5 47.5 71.5C38.4387 71.5 30.1997 66.6772 24.2097 58.8098C18.2195 50.942 14.5 40.0508 14.5 28C14.5 15.9492 18.2195 5.05798 24.2097 -2.80981C30.1997 -10.6772 38.4387 -15.5 47.5 -15.5C56.5613 -15.5 64.8003 -10.6772 70.7903 -2.80981C76.7805 5.05798 80.5 15.9492 80.5 28Z" stroke="white"/>
</g>
<defs>
<clipPath id="clip0_10_2">
<rect width="56" height="56" fill="white"/>
</clipPath>
</defs>
</svg>
